<svg xmlns="http://www.w3.org/2000/svg" xmlns:xlink="http://www.w3.org/1999/xlink" width="100" zoomAndPan="magnify" viewBox="0 0 80 30.000001" height="40" preserveAspectRatio="xMidYMid meet" version="1.0"><path fill="#24292e" d="M 44.679688 18.523438 L 44.65625 18.523438 C 44.667969 18.523438 44.667969 18.535156 44.679688 18.535156 L 44.691406 18.535156 Z M 44.679688 18.535156 C 44.589844 18.535156 44.355469 18.578125 44.113281 18.578125 C 43.34375 18.578125 43.078125 18.222656 43.078125 17.753906 L 43.078125 14.660156 L 44.644531 14.660156 C 44.734375 14.660156 44.800781 14.582031 44.800781 14.472656 L 44.800781 12.789062 C 44.800781 12.703125 44.722656 12.625 44.644531 12.625 L 43.078125 12.625 L 43.078125 10.53125 C 43.078125 10.453125 43.019531 10.410156 42.933594 10.410156 L 40.792969 10.410156 C 40.707031 10.410156 40.660156 10.464844 40.660156 10.53125 L 40.660156 12.679688 C 40.660156 12.679688 39.582031 12.945312 39.515625 12.957031 C 39.4375 12.980469 39.390625 13.046875 39.390625 13.125 L 39.390625 14.472656 C 39.390625 14.582031 39.46875 14.660156 39.558594 14.660156 L 40.648438 14.660156 L 40.648438 17.910156 C 40.648438 20.328125 42.332031 20.570312 43.476562 20.570312 C 44 20.570312 44.636719 20.40625 44.734375 20.347656 C 44.789062 20.328125 44.824219 20.261719 44.824219 20.195312 L 44.824219 18.714844 C 44.824219 18.625 44.769531 18.558594 44.679688 18.535156 Z M 68.125 16.363281 C 68.125 14.570312 67.398438 14.339844 66.644531 14.417969 C 66.054688 14.449219 65.574219 14.75 65.574219 14.75 L 65.574219 18.234375 C 65.574219 18.234375 66.054688 18.570312 66.777344 18.589844 C 67.789062 18.613281 68.125 18.246094 68.125 16.363281 Z M 70.527344 16.207031 C 70.527344 19.605469 69.425781 20.570312 67.511719 20.570312 C 65.886719 20.570312 65.019531 19.75 65.019531 19.75 C 65.019531 19.75 64.984375 20.203125 64.929688 20.261719 C 64.894531 20.316406 64.851562 20.339844 64.785156 20.339844 L 63.324219 20.339844 C 63.226562 20.339844 63.136719 20.261719 63.136719 20.171875 L 63.160156 9.183594 C 63.160156 9.09375 63.238281 9.015625 63.324219 9.015625 L 65.429688 9.015625 C 65.519531 9.015625 65.597656 9.09375 65.597656 9.183594 L 65.597656 12.914062 C 65.597656 12.914062 66.410156 12.390625 67.601562 12.390625 L 67.589844 12.367188 C 68.769531 12.367188 70.527344 12.8125 70.527344 16.207031 Z M 61.902344 12.636719 L 59.820312 12.636719 C 59.707031 12.636719 59.652344 12.714844 59.652344 12.824219 L 59.652344 18.199219 C 59.652344 18.199219 59.105469 18.578125 58.359375 18.578125 C 57.625 18.578125 57.402344 18.246094 57.402344 17.5 L 57.402344 12.800781 C 57.402344 12.714844 57.324219 12.636719 57.238281 12.636719 L 55.121094 12.636719 C 55.03125 12.636719 54.953125 12.714844 54.953125 12.800781 L 54.953125 17.867188 C 54.953125 20.039062 56.167969 20.582031 57.835938 20.582031 C 59.21875 20.582031 60.332031 19.828125 60.332031 19.828125 C 60.332031 19.828125 60.386719 20.214844 60.410156 20.273438 C 60.429688 20.316406 60.496094 20.359375 60.566406 20.359375 L 61.890625 20.359375 C 62 20.359375 62.054688 20.28125 62.054688 20.195312 L 62.078125 12.800781 C 62.089844 12.714844 62 12.636719 61.902344 12.636719 Z M 38.457031 12.625 L 36.351562 12.625 C 36.265625 12.625 36.1875 12.714844 36.1875 12.824219 L 36.1875 20.082031 C 36.1875 20.28125 36.320312 20.347656 36.484375 20.347656 L 38.390625 20.347656 C 38.589844 20.347656 38.636719 20.261719 38.636719 20.082031 L 38.636719 12.789062 C 38.625 12.703125 38.546875 12.625 38.457031 12.625 Z M 37.410156 9.273438 C 36.652344 9.273438 36.042969 9.875 36.042969 10.640625 C 36.042969 11.398438 36.640625 12.011719 37.410156 12.011719 C 38.15625 12.011719 38.757812 11.410156 38.757812 10.640625 C 38.757812 9.886719 38.15625 9.273438 37.410156 9.273438 Z M 53.730469 9.027344 L 51.636719 9.027344 C 51.546875 9.027344 51.46875 9.105469 51.46875 9.195312 L 51.46875 13.234375 L 48.195312 13.234375 L 48.195312 9.195312 C 48.195312 9.105469 48.121094 9.027344 48.03125 9.027344 L 45.925781 9.027344 C 45.835938 9.027344 45.757812 9.105469 45.757812 9.195312 L 45.757812 20.183594 C 45.757812 20.273438 45.847656 20.347656 45.925781 20.347656 L 48.03125 20.347656 C 48.121094 20.347656 48.195312 20.273438 48.195312 20.183594 L 48.195312 15.484375 L 51.46875 15.484375 L 51.449219 20.183594 C 51.449219 20.273438 51.527344 20.347656 51.613281 20.347656 L 53.71875 20.347656 C 53.808594 20.347656 53.886719 20.273438 53.886719 20.183594 L 53.886719 9.195312 C 53.898438 9.105469 53.820312 9.027344 53.730469 9.027344 Z M 35.0625 13.894531 L 35.0625 19.570312 C 35.0625 19.605469 35.050781 19.679688 35.003906 19.691406 C 35.003906 19.691406 33.769531 20.570312 31.734375 20.570312 C 29.273438 20.570312 26.34375 19.804688 26.34375 14.714844 C 26.34375 9.628906 28.894531 8.582031 31.386719 8.59375 C 33.546875 8.59375 34.414062 9.082031 34.550781 9.171875 C 34.582031 9.230469 34.605469 9.261719 34.605469 9.304688 L 34.203125 11.078125 C 34.203125 11.164062 34.113281 11.277344 34.003906 11.242188 C 33.648438 11.132812 33.113281 10.921875 31.855469 10.921875 C 30.398438 10.921875 28.839844 11.332031 28.839844 14.617188 C 28.839844 17.890625 30.320312 18.277344 31.386719 18.277344 C 32.300781 18.277344 32.625 18.167969 32.625 18.167969 L 32.625 15.898438 L 31.164062 15.898438 C 31.054688 15.898438 30.976562 15.820312 30.976562 15.730469 L 30.976562 13.902344 C 30.976562 13.816406 31.054688 13.738281 31.164062 13.738281 L 34.871094 13.738281 C 34.984375 13.726562 35.0625 13.804688 35.0625 13.894531 Z M 35.0625 13.894531 " fill-opacity="1" fill-rule="nonzero"/><path fill="#24292e" d="M 12.207031 5.777344 C 7.519531 5.777344 3.726562 9.574219 3.726562 14.261719 C 3.726562 18.011719 6.152344 21.183594 9.523438 22.308594 C 9.949219 22.375 10.113281 22.128906 10.113281 21.90625 C 10.113281 21.707031 10.101562 21.039062 10.101562 20.328125 C 7.976562 20.71875 7.421875 19.804688 7.253906 19.335938 C 7.152344 19.089844 6.742188 18.335938 6.386719 18.132812 C 6.085938 17.976562 5.660156 17.578125 6.375 17.566406 C 7.042969 17.554688 7.519531 18.179688 7.675781 18.433594 C 8.445312 19.714844 9.65625 19.359375 10.148438 19.136719 C 10.226562 18.589844 10.449219 18.210938 10.695312 18 C 8.8125 17.789062 6.832031 17.054688 6.832031 13.816406 C 6.832031 12.890625 7.164062 12.121094 7.699219 11.53125 C 7.609375 11.320312 7.320312 10.453125 7.789062 9.285156 C 7.789062 9.285156 8.5 9.0625 10.125 10.152344 C 10.804688 9.964844 11.527344 9.863281 12.242188 9.863281 C 12.964844 9.863281 13.675781 9.964844 14.355469 10.152344 C 15.980469 9.050781 16.683594 9.285156 16.683594 9.285156 C 17.148438 10.453125 16.847656 11.320312 16.773438 11.53125 C 17.316406 12.121094 17.640625 12.878906 17.640625 13.816406 C 17.640625 17.066406 15.660156 17.789062 13.765625 18 C 14.078125 18.269531 14.34375 18.769531 14.34375 19.570312 C 14.34375 20.707031 14.332031 21.617188 14.332031 21.898438 C 14.332031 22.121094 14.488281 22.386719 14.914062 22.296875 C 18.363281 21.128906 20.691406 17.890625 20.691406 14.25 C 20.691406 9.574219 16.894531 5.777344 12.207031 5.777344 Z M 12.207031 5.777344 " fill-opacity="1" fill-rule="evenodd"/></svg>